@startuml

class b2World{

}

class  b2Body{
}

class b2BodyDef{
}

class b2Shape{
}

class b2PolygonShape{

}

class PhysicsFacade{

}
class AplicationFront{

}

AplicationFront --> PhysicsFacade
PhysicsFacade -> b2World: "        "
b2Shape <|-- b2PolygonShape
PhysicsFacade ..> b2Shape
PhysicsFacade ..> b2PolygonShape
PhysicsFacade ..> b2BodyDef
PhysicsFacade ..> b2Body


@enduml